<svg width="19" height="18" viewBox="0 0 19 18" fill="none" xmlns="http://www.w3.org/2000/svg">
<path d="M18.16 7.2C18.256 7.2 18.339 7.267 18.355 7.361C18.449 7.887 18.5 8.453 18.5 9C18.5028 11.2148 17.686 13.3524 16.207 15.001C16.1727 15.0391 16.1248 15.0622 16.0737 15.0656C16.0225 15.069 15.972 15.0522 15.933 15.019L13.488 12.949C13.4669 12.9309 13.4498 12.9087 13.4375 12.8838C13.4252 12.8588 13.4181 12.8317 13.4166 12.8039C13.4151 12.7762 13.4193 12.7484 13.4288 12.7223C13.4383 12.6962 13.453 12.6723 13.472 12.652C13.9643 12.116 14.3433 11.4861 14.586 10.8H9.7C9.64696 10.8 9.59609 10.7789 9.55858 10.7414C9.52107 10.7039 9.5 10.653 9.5 10.6V7.4C9.5 7.29 9.59 7.2 9.7 7.2H18.16ZM11.973 13.8C12.009 13.7819 12.0495 13.7745 12.0895 13.7788C12.1296 13.783 12.1676 13.7987 12.199 13.824L14.767 15.997C14.7899 16.0161 14.8082 16.0401 14.8204 16.0673C14.8326 16.0945 14.8384 16.1241 14.8375 16.1539C14.8365 16.1837 14.8287 16.2129 14.8148 16.2393C14.8009 16.2656 14.7811 16.2884 14.757 16.306C13.2268 17.4101 11.387 18.003 9.5 18C8.00013 18.0001 6.524 17.6254 5.20579 16.9099C3.88759 16.1944 2.7691 15.1608 1.952 13.903C1.92525 13.8614 1.91513 13.8112 1.92365 13.7625C1.93218 13.7138 1.95872 13.6701 1.998 13.64L4.543 11.678C4.5664 11.6605 4.59324 11.6482 4.62175 11.6418C4.65026 11.6354 4.67979 11.6352 4.70841 11.641C4.73703 11.6469 4.76409 11.6587 4.7878 11.6758C4.81152 11.6928 4.83135 11.7147 4.846 11.74C5.54601 12.9288 6.67445 13.8045 7.99975 14.1876C9.32506 14.5707 10.7467 14.432 11.973 13.8ZM4.18 9.926C4.18697 9.96266 4.18355 10.0005 4.17012 10.0353C4.15669 10.0702 4.13379 10.1005 4.104 10.123L1.369 12.23C1.34487 12.2489 1.31662 12.262 1.28654 12.268C1.25645 12.274 1.22538 12.2729 1.1958 12.2647C1.16623 12.2566 1.13899 12.2416 1.11627 12.2209C1.09355 12.2003 1.07599 12.1746 1.065 12.146C0.690471 11.1394 0.49912 10.074 0.500003 9C0.500003 7.848 0.717003 6.746 1.112 5.733C1.12309 5.70508 1.14046 5.68008 1.16275 5.65994C1.18504 5.6398 1.21166 5.62505 1.24056 5.61683C1.26946 5.60862 1.29986 5.60716 1.32941 5.61256C1.35897 5.61797 1.38688 5.63009 1.411 5.648L4.143 7.652C4.208 7.699 4.238 7.782 4.221 7.86C4.07414 8.53954 4.06088 9.24105 4.18 9.926ZM4.647 6.161C4.743 6.231 4.878 6.203 4.942 6.103C5.42967 5.33588 6.1031 4.70427 6.89988 4.26673C7.69665 3.82918 8.59099 3.59985 9.5 3.6C10.757 3.59958 11.9744 4.04017 12.94 4.845C12.979 4.87802 13.0289 4.8953 13.0799 4.89345C13.131 4.8916 13.1795 4.87076 13.216 4.835L15.482 2.568C15.501 2.54912 15.5159 2.52657 15.5259 2.50173C15.5359 2.47688 15.5407 2.45026 15.54 2.4235C15.5394 2.39673 15.5333 2.37038 15.5221 2.34605C15.5109 2.32172 15.4949 2.29993 15.475 2.282C13.8324 0.811355 11.7048 -0.00124217 9.5 2.02343e-06C8.01964 -0.000991092 6.56193 0.363602 5.25635 1.0614C3.95076 1.75921 2.8377 2.76862 2.016 4C1.98838 4.0423 1.97806 4.0936 1.98718 4.14329C1.99629 4.19298 2.02416 4.23727 2.065 4.267L4.647 6.161Z" fill="black"/>
</svg>
